<svg data-v-fde0c5aa="" xmlns="http://www.w3.org/2000/svg" viewBox="0 0 300 300" class="iconLeftSlogan"><!----><defs data-v-fde0c5aa=""><!----></defs><rect data-v-fde0c5aa="" fill="#EFEEEB" x="0" y="0" width="300px" height="300px" class="logo-background-square"></rect><defs data-v-fde0c5aa=""><!----></defs><g data-v-fde0c5aa="" id="52596eb3-5a58-4189-b93e-fc86dbec3fa7" fill="#1F1E1A" transform="matrix(6.559311580387136,0,0,6.559311580387136,117.99090248617749,44.72599866933215)"><path d="M10.05 19.32L10.05 19.32L9.32 19.33L9.32 19.33Q8.33 19.33 8.10 19.03L8.10 19.03L8.10 19.03Q8.00 18.90 8.00 18.73L8.00 18.73L8.00 18.73Q8.00 18.56 8.12 18.49L8.12 18.49L8.12 18.49Q8.25 18.43 8.46 18.40L8.46 18.40L8.46 18.40Q8.67 18.38 8.75 18.33L8.75 18.33L8.75 18.33Q9.02 18.21 9.02 17.85L9.02 17.85L9.02 14.79L3.16 14.79L3.16 17.85L3.16 17.85Q3.16 18.15 3.32 18.28L3.32 18.28L3.32 18.28Q3.48 18.40 3.71 18.43L3.71 18.43L3.71 18.43Q3.94 18.45 4.01 18.47L4.01 18.47L4.01 18.47Q4.19 18.51 4.19 18.73L4.19 18.73L4.19 18.73Q4.19 18.95 4.09 19.08L4.09 19.08L4.09 19.08Q3.99 19.20 3.71 19.25L3.71 19.25L3.71 19.25Q3.36 19.32 2.41 19.32L2.41 19.32L2.41 19.32Q1.45 19.32 1.19 19.26L1.19 19.26L1.19 19.26Q0.66 19.13 0.64 18.70L0.64 18.70L0.64 18.70Q0.64 18.46 1.11 18.40L1.11 18.40L1.11 18.40Q1.33 18.37 1.40 18.33L1.40 18.33L1.40 18.33Q1.67 18.22 1.67 17.85L1.67 17.85L1.67 11.18L1.67 11.18Q1.67 10.66 1.16 10.62L1.16 10.62L1.16 10.62Q0.72 10.59 0.68 10.49L0.68 10.49L0.68 10.49Q0.64 10.40 0.64 10.24L0.64 10.24L0.64 10.24Q0.64 10.08 0.75 9.96L0.75 9.96L0.75 9.96Q0.85 9.83 1.11 9.78L1.11 9.78L1.11 9.78Q1.46 9.72 2.41 9.72L2.41 9.72L2.41 9.72Q3.36 9.72 3.63 9.78L3.63 9.78L3.63 9.78Q4.18 9.91 4.19 10.34L4.19 10.34L4.19 10.34Q4.19 10.58 3.71 10.64L3.71 10.64L3.71 10.64Q3.50 10.66 3.42 10.69L3.42 10.69L3.42 10.69Q3.16 10.80 3.16 11.18L3.16 11.18L3.16 14.01L9.02 14.01L9.02 11.18L9.02 11.18Q9.02 10.68 8.50 10.63L8.50 10.63L8.50 10.63Q8.16 10.60 8.08 10.51L8.08 10.51L8.08 10.51Q8.00 10.43 8.00 10.29L8.00 10.29L8.00 10.29Q8.00 10.15 8.06 10.05L8.06 10.05L8.06 10.05Q8.12 9.95 8.26 9.89L8.26 9.89L8.26 9.89Q8.39 9.83 8.52 9.79L8.52 9.79L8.52 9.79Q8.65 9.75 8.89 9.74L8.89 9.74L8.89 9.74Q9.24 9.72 9.47 9.72L9.47 9.72L9.73 9.72L9.73 9.72Q10.72 9.72 11.00 9.82L11.00 9.82L11.00 9.82Q11.54 10.01 11.54 10.34L11.54 10.34L11.54 10.34Q11.54 10.49 11.41 10.54L11.41 10.54L11.41 10.54Q11.28 10.60 11.07 10.63L11.07 10.63L11.07 10.63Q10.86 10.65 10.78 10.68L10.78 10.68L10.78 10.68Q10.51 10.81 10.51 11.18L10.51 11.18L10.51 17.85L10.51 17.85Q10.51 18.15 10.67 18.28L10.67 18.28L10.67 18.28Q10.83 18.40 11.06 18.43L11.06 18.43L11.06 18.43Q11.29 18.45 11.36 18.47L11.36 18.47L11.36 18.47Q11.54 18.51 11.54 18.69L11.54 18.69L11.54 18.69Q11.54 18.87 11.49 18.98L11.49 18.98L11.49 18.98Q11.44 19.09 11.31 19.15L11.31 19.15L11.31 19.15Q11.18 19.22 11.07 19.25L11.07 19.25L11.07 19.25Q10.97 19.28 10.75 19.30L10.75 19.30L10.75 19.30Q10.40 19.32 10.05 19.32ZM13.64 10.65L13.64 10.65L13.64 10.65Q13.36 10.58 13.07 10.52L13.07 10.52L13.07 10.52Q12.78 10.47 12.78 10.33L12.78 10.33L12.78 10.33Q12.78 10.19 12.88 10.08L12.88 10.08L12.88 10.08Q12.97 9.97 13.15 9.91L13.15 9.91L13.15 9.91Q13.34 9.84 13.52 9.80L13.52 9.80L13.52 9.80Q13.71 9.76 14 9.75L14 9.75L14 9.75Q14.40 9.72 14.98 9.72L14.98 9.72L16.17 9.72L16.17 9.72Q18.40 9.72 19.44 9.97L19.44 9.97L19.44 9.97Q20.54 10.21 21.03 10.69L21.03 10.69L21.03 10.69Q21.65 11.28 21.65 12.21L21.65 12.21L21.65 12.21Q21.65 13.58 20.82 14.26L20.82 14.26L20.82 14.26Q20.25 14.72 19.68 14.88L19.68 14.88L19.68 14.88Q19.11 15.03 18.73 15.10L18.73 15.10L18.73 15.10Q18.35 15.16 17.83 15.20L17.83 15.20L17.83 15.20Q17.04 15.26 15.90 15.26L15.90 15.26L15.47 15.26L15.47 18.14L15.47 18.14Q15.47 18.27 15.75 18.36L15.75 18.36L15.75 18.36Q16.04 18.44 16.32 18.52L16.32 18.52L16.32 18.52Q16.60 18.60 16.60 18.70L16.60 18.70L16.60 18.70Q16.60 18.93 16.50 19.06L16.50 19.06L16.50 19.06Q16.39 19.20 16.09 19.25L16.09 19.25L16.09 19.25Q15.73 19.31 14.71 19.31L14.71 19.31L14.71 19.31Q13.70 19.31 13.48 19.28L13.48 19.28L13.48 19.28Q12.79 19.20 12.78 18.77L12.78 18.77L12.78 18.77Q12.78 18.46 13.35 18.44L13.35 18.44L13.35 18.44Q13.92 18.42 13.92 18.14L13.92 18.14L13.92 10.88L13.92 10.88Q13.92 10.72 13.64 10.65ZM20.10 12.63L20.10 12.63L20.10 12.63Q20.10 10.53 16.89 10.53L16.89 10.53L16.60 10.53L16.60 10.53Q15.96 10.53 15.79 10.66L15.79 10.66L15.79 10.66Q15.61 10.79 15.58 10.86L15.58 10.86L15.58 10.86Q15.55 10.94 15.52 11.03L15.52 11.03L15.52 11.03Q15.47 11.18 15.47 11.50L15.47 11.50L15.47 14.44L15.47 14.44Q15.72 14.46 16.29 14.46L16.29 14.46L16.29 14.46Q16.86 14.46 17.32 14.43L17.32 14.43L17.32 14.43Q17.78 14.40 18.23 14.33L18.23 14.33L18.23 14.33Q18.68 14.25 19.00 14.12L19.00 14.12L19.00 14.12Q19.33 13.98 19.59 13.78L19.59 13.78L19.59 13.78Q20.10 13.38 20.10 12.63Z"></path></g><defs data-v-fde0c5aa=""><linearGradient data-v-fde0c5aa="" gradientTransform="rotate(25)" id="6fabaece-72f8-40e7-9054-284ad9649cb7" x1="0%" y1="0%" x2="100%" y2="0%"><stop data-v-fde0c5aa="" offset="0%" stop-color="#0978A6" stop-opacity="1"></stop><stop data-v-fde0c5aa="" offset="100%" stop-color="#FB9447" stop-opacity="1"></stop></linearGradient></defs><g data-v-fde0c5aa="" id="e1771c4d-e0f2-4690-96bb-7951c0463483" stroke="none" fill="url(#6fabaece-72f8-40e7-9054-284ad9649cb7)" transform="matrix(2.1271268801375647,0,0,2.1271268801375647,-31.80575471603784,43.64373307940014)"><path d="M66.234 33.11c-.052-1.225-.147-2.208-.23-3.075-.065-.676-.124-1.292-.152-1.923a12.374 12.374 0 0 0-.79-4.297l-.08-.198a3.091 3.091 0 0 0-.622-1.086 5.323 5.323 0 0 0-1.197-.873A9.772 9.772 0 0 0 62 21.047a1.134 1.134 0 0 1-.17-.101 3.938 3.938 0 0 0-.803-.415 3.713 3.713 0 0 0-1.985.025c-.025-.008-.044-.027-.07-.033a7.628 7.628 0 0 1-1.166-.652 9.024 9.024 0 0 0-1.083-.62l-.239-.103a10.318 10.318 0 0 0-1.73-.634 6.213 6.213 0 0 0-2.01-.04l-.47.039a2.007 2.007 0 0 0-1.36.514l-.172.144c-.065.053-.126.11-.19.163a4.933 4.933 0 0 0-.645-.039l-.183-.004c-.223-.012-.447-.01-.669-.011-.23-.002-.454 0-.678-.016a13.24 13.24 0 0 0-2.421.001l-.134.012a3.745 3.745 0 0 0-1.226.265 2.752 2.752 0 0 0-.968.745c-.057.061-.114.125-.179.187a9.382 9.382 0 0 0-1.617 2.032c-.23.402-.456.858-.67 1.32a8.13 8.13 0 0 1-.953.084c-.24.009-.478.018-.702.037l-.173.014a4.213 4.213 0 0 0-2.261.647 5.982 5.982 0 0 0-1.4 1.715l-.228.36a12.884 12.884 0 0 0-1.202 2.231 7.193 7.193 0 0 0-.222 4.529 5.141 5.141 0 0 0 .967 1.525c.1.122.197.243.29.365a46.128 46.128 0 0 1-.767 7.105 34.853 34.853 0 0 0-.61 10.306l.106.81a20.933 20.933 0 0 0 .693 3.666c.26.823.566 1.636.862 2.422.251.666.502 1.333.727 2.01a26.258 26.258 0 0 1 .881 8.409v.45c0 1.681-.067 3.38-.132 5.024-.066 1.651-.134 3.359-.134 5.054a1 1 0 0 0 2 0c0-1.656.067-3.343.132-4.974.066-1.664.134-3.383.134-5.103v-.45a28.145 28.145 0 0 0-.983-9.04 55.757 55.757 0 0 0-.753-2.085c-.3-.796-.583-1.548-.827-2.319a19.437 19.437 0 0 1-.616-3.319l-.11-.829c-.44-3.194.068-6.362.605-9.716.264-1.648.525-3.335.672-5.033.294.302.636.623.956.92.222.206.429.397.584.551a1.413 1.413 0 0 0 1.01.406 1.72 1.72 0 0 0 .35-.036l.021-.008a4.445 4.445 0 0 0 .731 1.494c1.225 1.785 2.975 2.244 4.811 2.59a11.745 11.745 0 0 0 1.861.156l.537.019c.156.007.307.003.456 0l-.176.18a9.795 9.795 0 0 0-.656.807l-.202.263c-.21.27-.428.527-.645.784a16.336 16.336 0 0 0-1.128 1.44c-.339.504-.708.984-1.074 1.463a17.675 17.675 0 0 0-1.922 2.887 9.388 9.388 0 0 0 .208 8.753c.115.187.238.376.372.565a7.185 7.185 0 0 1-1.839.38 1 1 0 0 0 .054 1.999l.056-.001a9.047 9.047 0 0 0 3.044-.748l.098-.042c.045-.02.102-.051.152-.074l.01.008c.17.11.338.222.506.335a12.613 12.613 0 0 0 1.464.887 11.832 11.832 0 0 0 5.198 1.4 1 1 0 0 0 0-2 9.914 9.914 0 0 1-4.315-1.195 10.897 10.897 0 0 1-1.232-.753c-.18-.12-.36-.24-.542-.358a4.032 4.032 0 0 1-1.32-1.447 7.321 7.321 0 0 1-.122-6.821 15.953 15.953 0 0 1 1.717-2.558c.392-.512.785-1.026 1.147-1.565a14.509 14.509 0 0 1 .994-1.263c.235-.277.47-.555.698-.847l.219-.288c.068-.09.142-.172.211-.261a4.55 4.55 0 0 0 1.012 2.435 6.529 6.529 0 0 0 1.25 1.149c.16.112.337.215.515.316a3.096 3.096 0 0 1 .432.273 1 1 0 1 0 1.269-1.546 4.913 4.913 0 0 0-.71-.464c-.122-.07-.245-.138-.356-.216a4.53 4.53 0 0 1-.867-.797 2.754 2.754 0 0 1-.603-1.673l-.02-.26a4.066 4.066 0 0 0-.674-2.277 2.354 2.354 0 0 0-2.202-.87c-.125.003-.255.008-.386.002l-.568-.02a10.08 10.08 0 0 1-1.55-.123c-1.566-.294-2.735-.593-3.532-1.755-.391-.57-.51-.833-.445-1.266a1.448 1.448 0 0 1 .588-.89l.005-.004a1.877 1.877 0 0 0 .495.064 3.595 3.595 0 0 0 .474-.035 7.298 7.298 0 0 0 2.487-.845 3.08 3.08 0 0 0 1.003.172 3.203 3.203 0 0 0 .456-.032 8.198 8.198 0 0 0 2.64-1.036c.11.042.22.08.329.112l.566.159a1.03 1.03 0 0 0 .15.03 6.158 6.158 0 0 0 1.247-.009 5.037 5.037 0 0 1 .815-.022c.29.025.479.148.835.805a5.427 5.427 0 0 1 .263.619 5.241 5.241 0 0 0 .71 1.393 6.707 6.707 0 0 0 1.322 1.205 8.32 8.32 0 0 1 .675.543 7.292 7.292 0 0 1 1.228 1.562 1.106 1.106 0 0 1 .22.55 1.787 1.787 0 0 1-.092.392 3.848 3.848 0 0 0-.17.768 1 1 0 1 0 1.991.188 1.936 1.936 0 0 1 .093-.378 3.344 3.344 0 0 0 .178-.937 2.963 2.963 0 0 0-.512-1.622 10.646 10.646 0 0 0-.831-1.183 26.12 26.12 0 0 0 1.918-1.252l.326-.228a1 1 0 1 0-1.138-1.645l-.337.236-.244.17a.977.977 0 0 0-.212-.589 1.002 1.002 0 0 0-1.408-.13 5.532 5.532 0 0 1-.82.519c-.225.126-.466.27-.707.43a5.024 5.024 0 0 1-.323-.71 7.479 7.479 0 0 0-.37-.851 4.895 4.895 0 0 0-.61-.911l.161-.144a5.781 5.781 0 0 0 .785-.796 6.573 6.573 0 0 0 1.057-1.818 4.339 4.339 0 0 0 .198-1.266 3.546 3.546 0 0 1 .357-.157 5.294 5.294 0 0 0 .5-.22q.849-.443 1.705-.878a5.194 5.194 0 0 0 1.402-1.077l.135-.135c.174-.173.349-.349.506-.538a2.483 2.483 0 0 0 .29-.457c.018-.036.033-.07.017-.059a1 1 0 0 0-1.391-1.437 2.08 2.08 0 0 0-.399.57c-.02.038-.037.078-.055.104-.117.141-.25.271-.379.4l-.149.149a3.19 3.19 0 0 1-.886.698q-.864.44-1.723.889c-.04.02-.087.037-.13.055a1.73 1.73 0 0 1-.025-.26 1 1 0 0 0-.996-1.004h-.004a1 1 0 0 0-1 .996 4.95 4.95 0 0 0 .138 1.062 3.283 3.283 0 0 1 .097.71 4.5 4.5 0 0 1-.096 1.195 4.73 4.73 0 0 1-.745 1.247 4.217 4.217 0 0 1-.535.53l-.249.222a4.609 4.609 0 0 0-.321.354c-.036.043-.073.083-.11.128a7.328 7.328 0 0 0-1.108.02 4.977 4.977 0 0 1-.786.025l-.468-.131c-.2-.06-.24-.086-.274-.124a3.395 3.395 0 0 1 .045-1.017c.023-.17.044-.332.057-.475.029-.336.03-.681.031-1.019v-.11a6.012 6.012 0 0 1 .08-.866c.039-.277.059-.564.078-.852a6.903 6.903 0 0 1 .118-1.023l.056-.258a4.035 4.035 0 0 1 .338-1.096 3.882 3.882 0 0 1 .99-.797c.143-.093.283-.185.414-.276.28-.196.552-.404.824-.611.318-.243.635-.486.968-.705a4.611 4.611 0 0 0 .715-.61c.08-.082.162-.163.25-.24a5.8 5.8 0 0 1 .931-.65 6.974 6.974 0 0 1 2.113-.855l.306-.065a5.988 5.988 0 0 1 1.229-.187 2 2 0 0 1 .428.226 3.068 3.068 0 0 0 .466.259 8.575 8.575 0 0 1 1.001.535 3.374 3.374 0 0 1 .706.497 1.908 1.908 0 0 1 .201.426l.105.26a10.712 10.712 0 0 1 .63 3.6c.03.663.091 1.312.16 2.023.08.842.172 1.797.222 2.971.097 2.217.024 5.208-.003 5.773a5.068 5.068 0 0 1-.43 1.501c-.085.216-.169.43-.243.646l-.245.72c-.135.402-.265.79-.43 1.22-.094.248-.215.517-.336.792a13.612 13.612 0 0 0-.535 1.325 30.291 30.291 0 0 1-1.595 4.24 33.725 33.725 0 0 0-2.289 7.668l-.1.85c-.08.679-.162 1.364-.205 2.028-.026.403-.073.794-.12 1.182a17.073 17.073 0 0 0-.148 1.704c-.09 4.13-.034 6.544.134 10.72.046 1.144.177 2.879.367 4.18.035.24.105.572.181.937a9.937 9.937 0 0 1 .273 1.715 1 1 0 0 0 .934 1.062.958.958 0 0 0 .065.002 1 1 0 0 0 .997-.936 9.37 9.37 0 0 0-.312-2.255c-.066-.317-.128-.605-.158-.814-.179-1.223-.306-2.915-.349-3.97-.165-4.134-.22-6.52-.132-10.598a15.032 15.032 0 0 1 .133-1.506c.051-.425.103-.853.131-1.294.04-.629.12-1.276.196-1.918l.101-.871a32.468 32.468 0 0 1 2.107-7.028 31.969 31.969 0 0 0 1.694-4.487c.107-.334.285-.736.458-1.124.137-.308.27-.611.377-.89.175-.459.314-.87.457-1.298l.237-.697c.066-.19.142-.382.217-.574a6.722 6.722 0 0 0 .566-2.135c.038-.79.096-3.816.003-5.956zm-26.759 4.065a15.068 15.068 0 0 1-1.173-1.162l-.305-.37a9.98 9.98 0 0 1-.827-1.092 7.978 7.978 0 0 0-.636-.851 3.716 3.716 0 0 1-.625-.917 5.2 5.2 0 0 1 .19-3.122 10.986 10.986 0 0 1 1.02-1.883c.083-.129.167-.262.252-.4a4.488 4.488 0 0 1 .904-1.171 2.839 2.839 0 0 1 1.214-.252l.185-.015c.156-.013.322-.02.488-.026-.065.13-.132.256-.194.387a8.116 8.116 0 0 0-.762 4.075 4.758 4.758 0 0 0 .383 1.403c.063.159.128.319.18.485.174.558.321 1.108.463 1.663l.03.117a9.02 9.02 0 0 0 .742 2.12 4.25 4.25 0 0 1-1.171 1.345c-.111-.105-.232-.218-.358-.334zm3.74-1.356a4.48 4.48 0 0 1-1.014-2.266l-.03-.12c-.151-.59-.308-1.173-.494-1.766a8.663 8.663 0 0 0-.228-.624 3.116 3.116 0 0 1-.25-.83 6.181 6.181 0 0 1 .575-3.054c.115-.242.238-.478.36-.713.207-.4.413-.798.585-1.213a16.319 16.319 0 0 1 .848-1.734 7.393 7.393 0 0 1 1.268-1.583c.096-.093.183-.186.266-.276a1.005 1.005 0 0 1 .295-.265 2.166 2.166 0 0 1 .607-.106l.148-.014a10.596 10.596 0 0 1 1.732-.019c-.078.055-.154.11-.235.164a15.115 15.115 0 0 0-2.361 1.888c-.059.059-.125.12-.194.183a3.659 3.659 0 0 0-.847 1.012 3.073 3.073 0 0 0-.247.813 1.837 1.837 0 0 1-.068.29 4.606 4.606 0 0 0-.181 1.9l.01.23c.014.314.044.624.074.935.036.365.073.73.073 1.104 0 .258-.014.51-.028.76a15.43 15.43 0 0 0-.03.87v.126a11.241 11.241 0 0 0 .402 3.628 2.792 2.792 0 0 0 .162.381 5.292 5.292 0 0 1-1.197.299zM55.66 21.78a7.738 7.738 0 0 0-1.243.875 8.007 8.007 0 0 0-.336.32 2.954 2.954 0 0 1-.408.36c-.37.246-.725.515-1.08.786-.25.19-.5.381-.758.563-.115.08-.237.16-.362.24a5.342 5.342 0 0 0-1.53 1.318 5.03 5.03 0 0 0-.657 1.826l-.052.234a8.399 8.399 0 0 0-.163 1.334c-.016.242-.032.484-.069.752a7.482 7.482 0 0 0-.094 1.096v.113c0 .282 0 .57-.024.849-.01.115-.028.244-.046.38a4.873 4.873 0 0 0-.02 1.686 6.344 6.344 0 0 1-1.58.588 1.096 1.096 0 0 1-.68-.12c-.007-.005-.01-.014-.018-.02-.006-.004-.014-.005-.02-.01a.833.833 0 0 1-.37-.44 9.6 9.6 0 0 1-.3-3v-.126c0-.259.013-.51.027-.76.016-.288.031-.575.031-.87 0-.44-.04-.87-.082-1.298-.027-.275-.054-.55-.066-.829l-.012-.247a2.991 2.991 0 0 1 .062-1.105 3.855 3.855 0 0 0 .153-.598 1.808 1.808 0 0 1 .075-.305 2.805 2.805 0 0 1 .414-.434c.09-.082.175-.162.25-.238a13.282 13.282 0 0 1 2.04-1.627c.186-.12.362-.246.536-.372.201-.144.4-.29.62-.42l.173-.104a7.28 7.28 0 0 0 1.315-.923c.204-.192.417-.366.63-.543l.178-.147c.031-.026.059-.047.03-.043a1.593 1.593 0 0 1 .173-.013l.532-.043a4.701 4.701 0 0 1 1.368-.005 8.713 8.713 0 0 1 1.388.519l.247.108a4.948 4.948 0 0 1 .5.283c-.256.124-.513.258-.772.41z"></path></g><defs data-v-fde0c5aa=""><!----></defs><g data-v-fde0c5aa="" id="9ebecce9-3247-46c7-a023-93414e7451f0" fill="#1F1E1A" transform="matrix(0.43403718563938243,0,0,0.43403718563938243,121.64197534499266,181.74753071375068)"><path d="M1.26 2.80L1.26 12.60L5.74 12.60L5.74 12.19L1.68 12.19L1.68 2.80ZM14.70 7.48L19.04 7.48L19.04 7.08L14.70 7.08L14.70 3.21L19.32 3.21L19.32 2.80L14.28 2.80L14.28 12.60L19.32 12.60L19.32 12.19L14.70 12.19ZM28.38 9.74L28.00 9.90C28.63 11.77 29.68 12.71 31.15 12.71C32.06 12.71 32.76 12.45 33.22 11.93C33.69 11.41 33.92 10.77 33.92 10.01C33.92 9.66 33.86 9.35 33.75 9.06C33.63 8.78 33.50 8.55 33.35 8.37C33.21 8.19 33.01 8.02 32.75 7.86C32.48 7.70 32.27 7.58 32.11 7.50C31.95 7.43 31.72 7.34 31.44 7.22C31.41 7.21 31.29 7.16 31.09 7.08C30.90 7.01 30.78 6.96 30.73 6.94C30.68 6.91 30.58 6.87 30.41 6.80C30.24 6.73 30.13 6.67 30.08 6.64C30.03 6.60 29.94 6.54 29.81 6.45C29.68 6.37 29.59 6.30 29.54 6.24C29.49 6.18 29.43 6.10 29.34 6.00C29.26 5.90 29.20 5.80 29.17 5.70C29.14 5.61 29.11 5.50 29.08 5.38C29.05 5.25 29.04 5.12 29.04 4.98C29.04 4.41 29.23 3.95 29.63 3.62C30.03 3.29 30.52 3.12 31.11 3.12C32.24 3.12 33.02 3.77 33.46 5.07L33.87 4.90C33.66 4.23 33.32 3.69 32.86 3.29C32.39 2.89 31.81 2.69 31.12 2.69C30.43 2.69 29.83 2.90 29.32 3.33C28.81 3.76 28.56 4.33 28.56 5.04C28.56 5.39 28.63 5.71 28.78 5.99C28.92 6.27 29.14 6.51 29.42 6.71C29.71 6.91 29.96 7.07 30.19 7.17C30.42 7.28 30.72 7.41 31.08 7.55C31.36 7.65 31.55 7.72 31.65 7.77C31.76 7.82 31.93 7.90 32.17 8.02C32.41 8.13 32.59 8.24 32.70 8.34C32.80 8.45 32.93 8.58 33.07 8.75C33.22 8.92 33.32 9.11 33.38 9.32C33.43 9.54 33.46 9.78 33.46 10.05C33.46 10.72 33.27 11.27 32.89 11.68C32.52 12.09 31.95 12.29 31.19 12.29C29.96 12.29 29.02 11.44 28.38 9.74ZM62.40 3.86L63.25 12.60L63.67 12.60L62.62 2.45L58.70 10.70L54.78 2.45L53.73 12.60L54.15 12.60L55.01 3.86L58.70 11.69ZM73.19 7.48L77.53 7.48L77.53 7.08L73.19 7.08L73.19 3.21L77.81 3.21L77.81 2.80L72.77 2.80L72.77 12.60L77.81 12.60L77.81 12.19L73.19 12.19ZM87.12 2.80L87.12 12.60L87.54 12.60L87.54 2.80ZM96.99 2.80L96.99 12.60L101.47 12.60L101.47 12.19L97.41 12.19L97.41 2.80ZM110.01 2.80L110.01 12.60L114.49 12.60L114.49 12.19L110.43 12.19L110.43 2.80ZM123.45 7.48L127.79 7.48L127.79 7.08L123.45 7.08L123.45 3.21L128.07 3.21L128.07 2.80L123.03 2.80L123.03 12.60L128.07 12.60L128.07 12.19L123.45 12.19ZM137.38 2.80L137.38 9.24C137.38 10.29 137.67 11.13 138.24 11.77C138.81 12.42 139.56 12.74 140.50 12.74C141.45 12.74 142.20 12.42 142.77 11.77C143.34 11.13 143.63 10.29 143.63 9.24L143.63 2.80L143.21 2.80L143.21 9.24C143.21 10.17 142.95 10.92 142.44 11.47C141.93 12.02 141.29 12.29 140.50 12.29C139.72 12.29 139.07 12.02 138.56 11.47C138.06 10.92 137.80 10.17 137.80 9.24L137.80 2.80ZM153.50 2.80ZM153.08 2.80L153.08 12.60L153.50 12.60L153.50 8.48L155.05 8.48L158.17 12.60L158.72 12.60L155.53 8.47C156.42 8.41 157.14 8.15 157.67 7.67C158.21 7.20 158.48 6.52 158.48 5.64C158.48 4.71 158.18 4.00 157.57 3.52C156.96 3.04 156.17 2.80 155.18 2.80ZM153.50 3.21L155.18 3.21C156.04 3.21 156.74 3.41 157.26 3.83C157.78 4.24 158.05 4.85 158.05 5.64C158.05 6.44 157.78 7.04 157.26 7.45C156.74 7.87 156.04 8.08 155.18 8.08L153.50 8.08ZM166.80 9.74L166.42 9.90C167.04 11.77 168.09 12.71 169.57 12.71C170.48 12.71 171.17 12.45 171.64 11.93C172.11 11.41 172.34 10.77 172.34 10.01C172.34 9.66 172.28 9.35 172.16 9.06C172.05 8.78 171.92 8.55 171.77 8.37C171.63 8.19 171.43 8.02 171.16 7.86C170.90 7.70 170.69 7.58 170.53 7.50C170.36 7.43 170.14 7.34 169.86 7.22C169.82 7.21 169.71 7.16 169.51 7.08C169.32 7.01 169.19 6.96 169.15 6.94C169.10 6.91 168.99 6.87 168.83 6.80C168.66 6.73 168.55 6.67 168.50 6.64C168.45 6.60 168.35 6.54 168.22 6.45C168.09 6.37 168.00 6.30 167.96 6.24C167.91 6.18 167.85 6.10 167.76 6.00C167.68 5.90 167.62 5.80 167.59 5.70C167.55 5.61 167.52 5.50 167.50 5.38C167.47 5.25 167.45 5.12 167.45 4.98C167.45 4.41 167.65 3.95 168.05 3.62C168.45 3.29 168.94 3.12 169.53 3.12C170.66 3.12 171.44 3.77 171.88 5.07L172.28 4.90C172.08 4.23 171.74 3.69 171.28 3.29C170.81 2.89 170.23 2.69 169.54 2.69C168.85 2.69 168.25 2.90 167.74 3.33C167.23 3.76 166.98 4.33 166.98 5.04C166.98 5.39 167.05 5.71 167.19 5.99C167.34 6.27 167.55 6.51 167.84 6.71C168.12 6.91 168.38 7.07 168.61 7.17C168.84 7.28 169.13 7.41 169.50 7.55C169.78 7.65 169.97 7.72 170.07 7.77C170.17 7.82 170.35 7.90 170.59 8.02C170.83 8.13 171.01 8.24 171.11 8.34C171.22 8.45 171.35 8.58 171.49 8.75C171.64 8.92 171.74 9.11 171.79 9.32C171.85 9.54 171.88 9.78 171.88 10.05C171.88 10.72 171.69 11.27 171.31 11.68C170.93 12.09 170.37 12.29 169.61 12.29C168.38 12.29 167.44 11.44 166.80 9.74ZM192.57 2.80L192.57 12.60L192.99 12.60L192.99 8.48L194.67 8.48C195.63 8.48 196.40 8.23 196.97 7.73C197.55 7.22 197.83 6.53 197.83 5.64C197.83 4.76 197.55 4.06 196.97 3.56C196.40 3.05 195.63 2.80 194.67 2.80ZM192.99 3.21L194.67 3.21C195.53 3.21 196.20 3.41 196.68 3.83C197.16 4.24 197.40 4.85 197.40 5.64C197.40 6.44 197.16 7.04 196.68 7.45C196.20 7.87 195.53 8.08 194.67 8.08L192.99 8.08ZM207.21 2.80ZM206.79 2.80L206.79 12.60L207.21 12.60L207.21 8.48L208.77 8.48L211.89 12.60L212.44 12.60L209.24 8.47C210.14 8.41 210.86 8.15 211.39 7.67C211.93 7.20 212.20 6.52 212.20 5.64C212.20 4.71 211.89 4.00 211.29 3.52C210.68 3.04 209.88 2.80 208.89 2.80ZM207.21 3.21L208.89 3.21C209.76 3.21 210.46 3.41 210.98 3.83C211.50 4.24 211.76 4.85 211.76 5.64C211.76 6.44 211.50 7.04 210.98 7.45C210.46 7.87 209.76 8.08 208.89 8.08L207.21 8.08ZM220.70 7.70C220.70 6.38 221.10 5.29 221.91 4.41C222.73 3.53 223.75 3.09 224.99 3.09C226.24 3.09 227.26 3.53 228.07 4.41C228.89 5.29 229.29 6.38 229.29 7.70C229.29 9.02 228.89 10.11 228.07 10.99C227.26 11.87 226.24 12.31 224.99 12.31C223.75 12.31 222.73 11.87 221.91 10.99C221.10 10.11 220.70 9.02 220.70 7.70ZM220.28 7.70C220.28 9.16 220.72 10.36 221.61 11.30C222.50 12.24 223.63 12.71 224.99 12.71C226.36 12.71 227.48 12.24 228.37 11.30C229.27 10.36 229.71 9.16 229.71 7.70C229.71 6.24 229.27 5.04 228.37 4.10C227.48 3.16 226.36 2.69 224.99 2.69C223.63 2.69 222.50 3.16 221.61 4.10C220.72 5.04 220.28 6.24 220.28 7.70ZM238.67 2.80L238.67 12.60L240.77 12.60C242.90 12.60 243.96 11.69 243.96 9.87C243.96 9.19 243.73 8.62 243.26 8.17C242.79 7.72 242.22 7.41 241.56 7.25C242.79 7.02 243.40 6.30 243.40 5.11C243.40 4.40 243.15 3.84 242.64 3.42C242.13 3.01 241.42 2.80 240.49 2.80ZM239.09 7.08L239.09 3.21L240.49 3.21C241.27 3.21 241.88 3.37 242.32 3.71C242.76 4.05 242.98 4.51 242.98 5.11C242.98 5.60 242.85 5.99 242.58 6.31C242.31 6.62 242.00 6.83 241.65 6.93C241.30 7.03 240.91 7.08 240.49 7.08ZM239.09 7.48L240.77 7.48C241.17 7.48 241.57 7.56 241.98 7.72C242.38 7.88 242.73 8.16 243.04 8.54C243.35 8.92 243.50 9.37 243.50 9.87C243.50 11.42 242.59 12.19 240.77 12.19L239.09 12.19ZM253.06 2.80L253.06 12.60L257.54 12.60L257.54 12.19L253.48 12.19L253.48 2.80ZM266.50 7.48L270.84 7.48L270.84 7.08L266.50 7.08L266.50 3.21L271.12 3.21L271.12 2.80L266.08 2.80L266.08 12.60L271.12 12.60L271.12 12.19L266.50 12.19ZM266.08-0.25L268.60 1.85L268.81 1.71L266.43-0.53ZM288.75 3.86L289.60 12.60L290.02 12.60L288.97 2.45L285.05 10.70L281.13 2.45L280.08 12.60L280.50 12.60L281.36 3.86L285.05 11.69ZM299.54 7.48L303.88 7.48L303.88 7.08L299.54 7.08L299.54 3.21L304.16 3.21L304.16 2.80L299.12 2.80L299.12 12.60L304.16 12.60L304.16 12.19L299.54 12.19ZM313.22 9.74L312.84 9.90C313.47 11.77 314.52 12.71 315.99 12.71C316.91 12.71 317.60 12.45 318.07 11.93C318.53 11.41 318.77 10.77 318.77 10.01C318.77 9.66 318.71 9.35 318.59 9.06C318.47 8.78 318.34 8.55 318.20 8.37C318.05 8.19 317.85 8.02 317.59 7.86C317.33 7.70 317.12 7.58 316.95 7.50C316.79 7.43 316.57 7.34 316.29 7.22C316.25 7.21 316.13 7.16 315.94 7.08C315.74 7.01 315.62 6.96 315.57 6.94C315.53 6.91 315.42 6.87 315.25 6.80C315.08 6.73 314.97 6.67 314.92 6.64C314.87 6.60 314.78 6.54 314.65 6.45C314.52 6.37 314.43 6.30 314.38 6.24C314.34 6.18 314.27 6.10 314.19 6.00C314.10 5.90 314.05 5.80 314.01 5.70C313.98 5.61 313.95 5.50 313.92 5.38C313.89 5.25 313.88 5.12 313.88 4.98C313.88 4.41 314.08 3.95 314.47 3.62C314.87 3.29 315.36 3.12 315.95 3.12C317.08 3.12 317.87 3.77 318.30 5.07L318.71 4.90C318.50 4.23 318.17 3.69 317.70 3.29C317.24 2.89 316.66 2.69 315.97 2.69C315.28 2.69 314.68 2.90 314.17 3.33C313.66 3.76 313.40 4.33 313.40 5.04C313.40 5.39 313.48 5.71 313.62 5.99C313.77 6.27 313.98 6.51 314.26 6.71C314.55 6.91 314.81 7.07 315.03 7.17C315.26 7.28 315.56 7.41 315.92 7.55C316.20 7.65 316.40 7.72 316.50 7.77C316.60 7.82 316.77 7.90 317.02 8.02C317.26 8.13 317.43 8.24 317.54 8.34C317.65 8.45 317.77 8.58 317.92 8.75C318.06 8.92 318.16 9.11 318.22 9.32C318.28 9.54 318.30 9.78 318.30 10.05C318.30 10.72 318.12 11.27 317.74 11.68C317.36 12.09 316.79 12.29 316.04 12.29C314.80 12.29 313.87 11.44 313.22 9.74Z"></path></g></svg>